HIERARCHY
ROOT Hips
{
  OFFSET 0 0 0
  CHANNELS 6 Xposition Yposition Zposition Zrotation Xrotation Yrotation
  JOINT Spine
  {
    OFFSET 0 10.1816 0.131521
    CHANNELS 3 Zrotation Xrotation Yrotation
    JOINT Spine1
    {
      OFFSET 0 10.0835 -1.0008
      CHANNELS 3 Zrotation Xrotation Yrotation
      JOINT Spine2
      {
        OFFSET 0 9.10001 -1.37342
        CHANNELS 3 Zrotation Xrotation Yrotation
        JOINT Neck
        {
          OFFSET 0 16.6717 -2.51617
          CHANNELS 3 Zrotation Xrotation Yrotation
          JOINT Head
          {
            OFFSET 0 9.61788 1.68501
            CHANNELS 3 Zrotation Xrotation Yrotation
            End Site
            {
              OFFSET 0 17.8152 2.58499
            }
          }
        }
        JOINT LeftShoulder
        {
          OFFSET 4.57045 10.946 -2.62799
          CHANNELS 3 Zrotation Xrotation Yrotation
          JOINT LeftArm
          {
            OFFSET 10.5924 -0.524583 -2.23212
            CHANNELS 3 Zrotation Xrotation Yrotation
            JOINT LeftForeArm
            {
              OFFSET 27.8415 -8.94286e-05 3.74589e-05
              CHANNELS 3 Zrotation Xrotation Yrotation
              JOINT LeftHand
              {
                OFFSET 28.3288 -1.74407e-05 3.78045e-05
                CHANNELS 3 Zrotation Xrotation Yrotation
                End Site
                {
                  OFFSET 9.5334 -3.3924e-05 1.3937e-05
                }
              }
            }
          }
        }
        JOINT RightShoulder
        {
          OFFSET -4.56997 10.9462 -2.62802
          CHANNELS 3 Zrotation Xrotation Yrotation
          JOINT RightArm
          {
            OFFSET -10.5928 -0.524798 -2.2321
            CHANNELS 3 Zrotation Xrotation Yrotation
            JOINT RightForeArm
            {
              OFFSET -27.8415 -3.30792e-05 1.16763e-05
              CHANNELS 3 Zrotation Xrotation Yrotation
              JOINT RightHand
              {
                OFFSET -28.3288 0 5.5816e-05
                CHANNELS 3 Zrotation Xrotation Yrotation
                End Site
                {
                  OFFSET -9.5325 -1.63123e-05 1.67918e-05
                }
              }
            }
          }
        }
      }
    }
  }
  JOINT LeftUpLeg
  {
    OFFSET 8.20778 -6.75171 -1.59956
    CHANNELS 3 Zrotation Xrotation Yrotation
    JOINT LeftLeg
    {
      OFFSET 0 -44.3705 0.284643
      CHANNELS 3 Zrotation Xrotation Yrotation
      JOINT LeftFoot
      {
        OFFSET 0 -44.4279 -2.98219
        CHANNELS 3 Zrotation Xrotation Yrotation
        JOINT LeftToeBase
        {
          OFFSET 0 -8.72867 10.7106
          CHANNELS 3 Zrotation Xrotation Yrotation
          End Site
          {
            OFFSET 0 -0.000676683 9.27814
          }
        }
      }
    }
  }
  JOINT RightUpLeg
  {
    OFFSET -8.2078 -6.75166 -1.59956
    CHANNELS 3 Zrotation Xrotation Yrotation
    JOINT RightLeg
    {
      OFFSET 0 -44.3705 0.286156
      CHANNELS 3 Zrotation Xrotation Yrotation
      JOINT RightFoot
      {
        OFFSET 0 -44.4277 -2.98379
        CHANNELS 3 Zrotation Xrotation Yrotation
        JOINT RightToeBase
        {
          OFFSET 0 -8.72867 10.7106
          CHANNELS 3 Zrotation Xrotation Yrotation
          End Site
          {
            OFFSET 0 -0.000676369 9.27812
          }
        }
      }
    }
  }
}
MOTION
Frames:	14
Frame Time:	0.0333333
0.91662 99.1751 1.87091 -1.26143 9.05753 33.7245 0.397202 1.0646 -2.72893 2.19675 2.12339 -5.03596 2.20125 2.11315 -5.03821 -7.39009 1.12653 -2.33068 3.83715 -10.6255 -18.2054 -9.26993 6.79534 -6.26763 -58.9705 15.2404 -13.8935 -0.000197851 -1.83998e-05 -47.4571 19.3852 0.326441 -18.9208 7.302 5.08131 -0.435544 62.0266 -7.59075 11.511 -1.30138e-05 -1.05432e-05 22.6599 -10.4877 3.3472 4.0225 11.1987 -13.8243 11.707 -0.52561 22.6462 10.3361 -15.0344 -14.1 15.0142 1.64227e-06 8.27876 8.56142e-06 -19.9193 -28.1617 -14.2977 -5.90324 22.1402 5.69487 20.8767 -0.876872 -0.228726 -0.139358 2.31377 0.00581742 
0.80355 98.709 1.31838 -3.20057 8.4872 37.4691 1.31912 1.17943 -2.57477 2.4105 2.32359 -5.00218 2.41137 2.32429 -5.00144 -6.92688 0.0762345 -1.34261 4.17534 -5.30991 -17.303 -7.49777 6.33874 -6.26854 -56.7844 14.2227 -12.762 -0.000232355 1.28607e-05 -50.3584 21.074 -2.65272 -17.8146 8.13873 4.89018 1.59297 61.4928 -5.22909 13.3092 -1.45429e-05 -8.09723e-06 22.0935 -14.018 3.24984 4.48863 13.3081 -17.6327 11.2065 -0.426442 26.4681 8.88131 -15.1743 -15.0131 13.5525 -2.4917e-06 8.27876 2.39359e-05 -19.0269 -28.3851 -14.1319 -6.1281 23.4884 4.5523 21.5346 -2.21697 -2.35069 -0.206867 2.27487 0.00864578 
0.475387 98.3685 0.942704 -5.17731 7.61394 43.7308 1.87418 1.21584 -2.23828 2.20535 2.39691 -4.61525 2.20427 2.40684 -4.61075 -6.53893 -1.0006 -0.344153 4.22082 -0.1103 -17.0844 -5.71513 5.95242 -5.41456 -54.6987 11.204 -12.7918 -0.000188387 -1.24482e-05 -52.7088 24.8365 -7.61569 -16.6098 9.26981 4.76436 3.88824 60.0342 -2.1622 15.4874 -1.71831e-05 -6.12092e-06 22.1701 -17.9744 3.14466 5.18318 15.0133 -21.545 9.51042 -0.376891 28.7422 7.79754 -15.3135 -14.4991 10.6904 -1.57336e-06 8.27876 -2.52257e-06 -18.256 -27.6116 -14.0319 -6.44995 24.8828 3.98607 22.3248 -4.8372 -7.0393 -0.243985 2.25348 0.0101933 
0.275342 98.1437 0.866463 -7.62888 5.6687 52.8712 2.51229 1.04529 -1.58083 1.91728 2.09383 -3.73856 1.91677 2.1112 -3.72923 -6.41273 -1.64374 0.43423 5.36636 4.62439 -19.3159 -4.31167 5.52879 -5.74036 -52.3648 7.66718 -11.7101 -0.000201361 -4.49188e-07 -54.398 27.6252 -12.4853 -15.9991 10.1722 4.63274 5.8264 55.6683 2.0982 16.9326 -5.35084e-06 1.94996e-06 23.3859 -20.1116 1.45845 6.23516 16.8973 -25.9055 7.12146 -0.285059 30.0635 6.05911 -15.309 -13.0506 6.49468 -3.12444e-06 8.27876 -1.65572e-05 -16.5365 -25.3127 -13.8667 -6.79544 25.8048 0.713045 23.4812 -7.63677 -11.6811 -0.352249 2.19107 0.0147167 
0.52603 97.9243 0.774688 -9.98682 2.61735 62.8108 2.88075 0.769944 -0.606579 1.04258 1.62214 -2.31997 1.04394 1.6382 -2.30819 -5.0188 -1.7677 0.359208 7.88637 6.0994 -23.5218 -2.04336 4.80507 -7.02463 -49.2777 4.76679 -9.46348 -0.000210685 3.46436e-06 -54.7473 29.2365 -20.0614 -14.323 9.40731 4.37375 8.27387 51.4194 5.46226 17.3803 -7.39416e-06 1.32578e-06 26.5074 -18.8582 1.10883 6.98584 18.5978 -30.5336 4.42476 -0.226961 31.3292 4.7269 -15.1744 -11.4622 1.2262 1.52889e-06 8.27876 2.32522e-05 -13.7267 -22.0898 -13.6997 -7.11974 25.7463 -6.4059 25.3296 -8.96055 -13.6898 -0.63902 2.02563 0.0267026 
1.59579 97.6313 0.432923 -11.4206 -1.04834 71.2745 2.87497 0.600537 0.584539 0.191941 1.35923 -0.320128 0.191096 1.36147 -0.310023 -3.20223 -2.05433 -0.346584 10.4592 4.59487 -29.0556 0.225754 4.03357 -7.90982 -47.7474 1.18827 -7.82416 -0.000205772 3.88263e-06 -54.9421 30.1012 -28.4631 -10.4578 6.86729 3.84786 9.98293 48.775 5.85076 19.0135 -1.37534e-06 -9.2593e-07 30.2 -16.1186 3.96012 11.0681 19.7425 -34.4827 1.51694 -0.282107 33.4978 5.23001 -15.0984 -10.7504 -4.89962 1.25172e-06 8.27876 -2.66534e-05 -11.6835 -18.4092 -14.1041 -7.00148 24.2684 -6.95868 24.137 -9.25262 -19.9517 1.78839e-06 2.34702 -1.55806e-06 
3.12 97.0177 -0.355358 -12.3035 -4.94672 76.9669 2.0621 0.649318 1.78382 -0.828515 1.45119 2.09711 -0.835153 1.43955 2.10281 -0.41666 -3.26162 -1.48419 12.2447 3.22766 -34.898 4.41937 3.16795 -7.20592 -50.3633 -2.58835 -7.50365 -0.000206676 -4.84136e-06 -51.6862 31.7362 -39.0073 -2.276 7.51829 3.65129 10.9258 40.6163 7.49785 22.775 8.16988e-06 -6.98122e-07 33.2845 -13.6006 8.61872 18.5435 21.1631 -38.1406 -1.13093 -0.496788 37.5971 8.21952 -15.5164 -11.3731 -11.602 6.71656e-06 8.27876 -3.2482e-05 -11.7656 -14.8519 -15.3971 -6.06053 23.0287 -7.00955 20.2775 -4.13581 -21.8188 -4.35596e-06 1.9196 1.37947e-05 
5.03846 95.6676 -1.06813 -12.4253 -8.80665 83.9407 1.71462 0.914749 2.78942 -1.72985 1.98902 3.9919 -1.74443 1.96734 3.99615 1.88672 -4.86064 -2.87996 13.1204 0.530496 -42.1775 7.49213 2.11308 -8.00312 -52.5265 -3.57116 -5.39386 -0.000203602 -1.93294e-06 -47.2701 52.6264 -50.8125 21.5119 6.4414 3.2358 11.8577 31.6645 9.53205 26.142 3.7222e-06 2.40181e-06 40.5375 -15.0665 8.88091 22.6669 21.8208 -42.7853 -3.50619 -0.645892 43.4028 9.35047 -15.8338 -13.1201 -18.4411 7.7508e-07 8.27877 -5.64844e-05 -12.8428 -10.0608 -16.9117 -4.77472 22.3799 -7.0884 16.2568 2.82944 -22.1264 1.55741 -0.227714 -0.0183994 
6.91547 93.9905 -1.31852 -13.4497 -11.1448 92.0622 0.84467 0.754643 3.68334 -3.31521 1.65873 5.47477 -3.33538 1.63397 5.46985 3.9248 -5.67454 -4.44659 13.8941 -1.72722 -50.8034 9.35323 1.32179 -8.58196 -55.3003 -3.16076 -2.09123 -0.000196833 -5.40157e-06 -42.96 67.1141 -57.5741 37.7699 3.82796 2.77273 13.9521 27.4511 10.5551 27.5347 1.65155e-06 -2.56099e-06 51.9585 -16.5547 10.0666 21.7323 20.3786 -48.9738 -6.02848 -0.665622 48.2115 8.41016 -15.741 -14.6048 -24.0264 5.90017e-08 8.27876 -1.29671e-05 -14.2618 -5.84801 -18.075 -3.46711 21.2768 -7.10073 13.8312 9.86945 -23.0152 2.94839 -3.56492 0.0936387 
8.45888 92.2948 -1.09973 -14.9715 -12.4354 96.6156 -0.661839 0.510039 4.79367 -5.07065 1.05198 7.62826 -5.08894 1.03436 7.61767 6.01603 -6.34005 -5.64157 13.5664 -4.21913 -57.2353 10.3194 1.41342 -6.78986 -59.3334 -5.01866 -1.71972 -0.000195513 1.45623e-05 -39.1936 52.6034 -57.9125 28.1278 -2.08578 1.98715 18.4664 26.6356 10.3655 29.3101 1.74697e-05 3.0368e-06 60.7623 -16.7852 13.4423 25.26 19.3577 -54.0127 -7.75419 -0.794405 52.3447 8.97288 -16.5412 -16.0236 -28.3301 3.34337e-06 8.27876 1.98989e-05 -15.3139 -4.57949 -18.6193 -2.58249 21.1247 -6.96982 13.4206 15.938 -22.2073 6.53861 -10.6459 0.758937 
9.73515 91.2018 -0.971151 -15.5168 -14.0606 101.102 -1.24582 0.537097 5.67649 -6.12374 1.05441 9.20465 -6.14622 1.03535 9.19094 7.86429 -7.19769 -6.42257 12.6573 -6.66252 -61.7946 9.84443 1.88291 -4.91332 -63.2578 -7.52641 -2.08169 -0.000198631 3.83278e-06 -36.3472 36.2948 -52.6365 14.0038 -2.69303 1.76837 20.0317 19.4299 10.5168 37.4716 -1.77352e-05 -4.83845e-06 64.229 -18.5778 17.3469 31.3212 18.9172 -57.4852 -8.18292 -0.661873 54.8199 6.80686 -16.1823 -17.0913 -30.8016 2.96711e-06 8.27875 2.04912e-05 -13.6955 -2.83004 -18.7446 -1.51278 20.884 -6.96458 16.0969 14.5527 -23.2171 9.60626 -14.6629 1.48581 
10.6678 90.6161 -0.760249 -15.8737 -15.538 105.912 -1.40254 0.610151 6.2428 -6.60438 1.20758 10.0909 -6.63556 1.18301 10.0721 9.05051 -7.90405 -6.78356 11.4402 -7.63402 -65.2049 8.25516 2.09604 -4.52845 -67.4352 -10.1621 -1.38958 -0.000191661 6.44551e-06 -34.2645 35.535 -48.5323 12.1233 1.6697 2.18401 19.4285 7.78237 11.122 49.2273 3.28919e-06 1.27229e-06 64.6066 -19.0505 18.8219 33.49 18.4203 -60.4096 -7.57411 -0.260443 55.6418 2.16416 -14.6736 -17.5113 -31.6042 1.32113e-06 8.27875 -2.06145e-05 -10.9367 -1.53439 -18.1535 -1.11766 20.3528 -6.80875 12.6256 12.4226 -25.2674 11.2575 -14.7481 1.54956 
11.1354 90.1959 -0.518838 -15.801 -16.3062 109.313 -1.46804 0.760204 6.61451 -6.66525 1.51195 10.7226 -6.70167 1.48629 10.7023 9.55633 -8.43364 -6.66222 9.7031 -7.8834 -66.8283 6.33707 2.14422 -4.9317 -71.092 -12.1849 0.987133 -0.000211438 1.32876e-05 -33.0404 35.8978 -48.2583 10.0533 4.81379 2.44162 19.6178 -3.42513 11.4636 59.3146 -2.5828e-06 2.40441e-06 64.6379 -21.8441 19.5396 33.4625 18.3164 -62.2421 -6.01106 0.166527 56.1162 -2.52114 -13.0491 -17.6919 -31.4504 3.84113e-06 8.27875 -2.58131e-05 -9.63257 -0.899458 -18.3185 -0.494301 21.0767 -6.68336 12.0992 10.5644 -27.5017 11.7033 -14.408 1.48189 
10.9985 89.8655 -0.206255 -15.7616 -16.522 111.078 -1.55946 0.839402 6.70263 -6.61008 1.67897 10.8322 -6.64738 1.65467 10.8121 10.2172 -9.01307 -6.23577 8.41964 -7.07481 -66.8212 5.91529 2.18221 -4.5951 -74.7033 -13.3273 3.13486 -0.000211616 2.10744e-06 -31.5313 36.2738 -49.6357 8.36082 7.59777 2.43636 18.625 -13.5891 11.2055 66.8727 2.53521e-05 1.99125e-06 66.2421 -24.3196 20.0857 35.2905 18.8414 -63.4898 -3.78476 0.513464 56.368 -6.20205 -11.7555 -17.4804 -30.8544 -5.55662e-06 8.27877 9.00752e-06 -9.81952 -1.27634 -19.0835 0.370271 22.8253 -6.70864 11.0342 9.80629 -27.3443 12.4966 -15.3054 1.67224 
